<svg width="360" height="96" viewBox="0 0 360 96" fill="none" xmlns="http://www.w3.org/2000/svg" role="img" aria-labelledby="title desc">
  <title id="title">Seamless VA</title>
  <desc id="desc">Seamless VA logo using the client supplied emblem style</desc>
  <defs>
    <linearGradient id="mark" x1="16" y1="12" x2="88" y2="86" gradientUnits="userSpaceOnUse">
      <stop stop-color="#8BF7FF"/>
      <stop offset="0.52" stop-color="#24F2B2"/>
      <stop offset="1" stop-color="#35E8FF"/>
    </linearGradient>
    <linearGradient id="word" x1="106" y1="24" x2="300" y2="68" gradientUnits="userSpaceOnUse">
      <stop stop-color="#07162A"/>
      <stop offset="0.72" stop-color="#061B33"/>
      <stop offset="1" stop-color="#00B884"/>
    </linearGradient>
  </defs>
  <g transform="translate(6 4)">
    <circle cx="44" cy="44" r="30" fill="none" stroke="url(#mark)" stroke-width="8" opacity="0.9"/>
    <path d="M44 4v80M4 44h80M15 18c18 14 39 14 58 0M15 70c18-14 39-14 58 0" stroke="url(#mark)" stroke-width="2.5" opacity="0.72"/>
    <path d="M9 48c10 8 23 12 35 12 13 0 25-4 35-12" stroke="url(#mark)" stroke-width="3" opacity="0.72"/>
    <rect x="16" y="12" width="56" height="19" rx="3" fill="#B9F8FF" opacity="0.9"/>
    <text x="44" y="26" text-anchor="middle" fill="#07162A" font-family="Georgia, serif" font-size="10" font-style="italic" letter-spacing=".8">SEAMLESS</text>
    <text x="44" y="62" text-anchor="middle" fill="#07162A" font-family="Georgia, serif" font-size="48" font-weight="700" font-style="italic">VA</text>
  </g>
  <text x="108" y="56" fill="url(#word)" font-family="Inter, Arial, sans-serif" font-size="32" font-weight="800" letter-spacing="-1.1">Seamless VA</text>
</svg>
