<svg width="512" height="512" viewBox="0 0 512 512" fill="none" xmlns="http://www.w3.org/2000/svg" role="img" aria-label="SeamlessVA Philippines favicon">
  <defs>
    <linearGradient id="bg" x1="64" y1="48" x2="448" y2="464" gradientUnits="userSpaceOnUse">
      <stop stop-color="#7B74FF"/>
      <stop offset="0.55" stop-color="#635BFF"/>
      <stop offset="1" stop-color="#FF8A5B"/>
    </linearGradient>
    <linearGradient id="line" x1="142" y1="138" x2="370" y2="374" gradientUnits="userSpaceOnUse">
      <stop stop-color="#FFFFFF"/>
      <stop offset="1" stop-color="#E6E8FF"/>
    </linearGradient>
  </defs>
  <rect width="512" height="512" rx="128" fill="#0F1631"/>
  <rect x="38" y="38" width="436" height="436" rx="110" fill="url(#bg)" opacity="0.28"/>
  <path d="M142 171C142 140 167 115 198 115H314C345 115 370 140 370 171V178C370 209 345 234 314 234H225C194 234 169 259 169 290V297C169 328 194 353 225 353H382" stroke="url(#line)" stroke-width="42" stroke-linecap="round"/>
  <path d="M382 353C382 384 357 409 326 409H210C179 409 154 384 154 353V346C154 315 179 290 210 290H299C330 290 355 265 355 234V227C355 196 330 171 299 171H142" stroke="url(#line)" stroke-width="42" stroke-linecap="round" opacity="0.92"/>
  <circle cx="386" cy="128" r="20" fill="#FFD7C7"/>
  <circle cx="126" cy="388" r="18" fill="#D9D6FF"/>
</svg>
